# xmcd
#
# Track frame offsets:
#	150
#	10300
#	28329
#	37659
#	53367
#	72402
#	85461
#	106939
#	114693
#	129136
#	147721
#	161664
#	181347
#	191052
#
# Disc length: 2814 seconds
#
# Revision: 1
# Processed by: cddbd v1.5.1PL2 Copyright (c) Steve Scherf et al.
# Submitted via: audiograbber 1.83.01
#
DISCID=be0afc0e
DTITLE=Knapp ein Jahr - Zeitlos
DYEAR=1900
DGENRE=
TTITLE0=Love of my life
TTITLE1=How long blues
TTITLE2=Flying horse
TTITLE3=Homeles boy
TTITLE4=Fiddler`s dream
TTITLE5=When it comes to you
TTITLE6=Unknown legend
TTITLE7=Cork
TTITLE8=Hard times
TTITLE9=Satisfaction
TTITLE10=Next time I`m in town 
TTITLE11=Orange blossom special
TTITLE12=Cajun fun
TTITLE13=The geat song of indifference
EXTD=
EXTT0=
EXTT1=
EXTT2=
EXTT3=
EXTT4=
EXTT5=
EXTT6=
EXTT7=
EXTT8=
EXTT9=
EXTT10=
EXTT11=
EXTT12=
EXTT13=
PLAYORDER=
